<svg width="24" height="24" viewBox="0 0 24 24" fill="none" xmlns="http://www.w3.org/2000/svg">
<path d="M19.2799 0.219587C19.1392 0.0789856 18.9485 0 18.7496 0C18.5508 0 18.3601 0.0789856 18.2194 0.219587L15.749 2.69006L21.3093 8.25049L23.7797 5.78152C23.8495 5.71185 23.9049 5.62909 23.9427 5.53797C23.9805 5.44685 24 5.34917 24 5.25052C24 5.15187 23.9805 5.05419 23.9427 4.96308C23.9049 4.87196 23.8495 4.7892 23.7797 4.71953L19.2799 0.219587ZM20.2488 9.31097L14.6886 3.75054L4.93899 13.5004H5.24948C5.44838 13.5004 5.63914 13.5794 5.77979 13.7201C5.92043 13.8607 5.99945 14.0515 5.99945 14.2504V15.0004H6.74941C6.94832 15.0004 7.13907 15.0794 7.27972 15.2201C7.42037 15.3607 7.49938 15.5515 7.49938 15.7504V16.5004H8.24935C8.44825 16.5004 8.63901 16.5794 8.77966 16.7201C8.9203 16.8607 8.99932 17.0515 8.99932 17.2504V18.0004H9.74928C9.94819 18.0004 10.1389 18.0794 10.2796 18.22C10.4202 18.3607 10.4993 18.5514 10.4993 18.7504V19.0609L20.2488 9.31097ZM9.04731 20.5128C9.01575 20.4289 8.9995 20.34 8.99932 20.2503V19.5003H8.24935C8.05044 19.5003 7.85969 19.4213 7.71904 19.2807C7.5784 19.14 7.49938 18.9493 7.49938 18.7504V18.0004H6.74941C6.55051 18.0004 6.35975 17.9213 6.21911 17.7807C6.07846 17.64 5.99945 17.4493 5.99945 17.2504V16.5004H5.24948C5.05058 16.5004 4.85982 16.4214 4.71917 16.2807C4.57853 16.1401 4.49951 15.9493 4.49951 15.7504V15.0004H3.74955C3.65988 15.0003 3.57097 14.984 3.48706 14.9524L3.21857 15.2194C3.1471 15.2914 3.09097 15.3771 3.05358 15.4714L0.0537068 22.9713C-0.000846854 23.1076 -0.0142015 23.2569 0.0152984 23.4007C0.0447983 23.5445 0.115855 23.6765 0.219661 23.7803C0.323466 23.8841 0.455454 23.9552 0.599262 23.9847C0.74307 24.0142 0.892374 24.0008 1.02866 23.9463L8.52834 20.9463C8.62263 20.9089 8.70835 20.8528 8.78032 20.7813L9.04731 20.5128Z" fill="black"/>
</svg>
